<?xml version="1.0" encoding="UTF-8" standalone="no"?>

<svg id="svg2" xmlns:rdf="http://www.w3.org/1999/02/22-rdf-syntax-ns#" xmlns="http://www.w3.org/2000/svg" xml:space="preserve" height="100%" width="100%" version="1.1" preserveAspectRatio="xMinYMin slice" xmlns:cc="http://creativecommons.org/ns#" xmlns:dc="http://purl.org/dc/elements/1.1/" viewBox="0 0 20 800"><defs id="defs128"/><style id="style4">.orange   {fill:#fa930d}
.blue     {fill:#136ba2}
.blue_ps  {fill:#5e64b2}
.blue_ws  {fill:#2788b5}
.blue_k   {fill:#607fab}
.blue_mps {fill:#74838c}
.red1     {fill:#9a3965}
.red2     {fill:#b7334f}
.green1   {fill:#4f7f4b}
.green2   {fill:#556780}
.white    {fill:#fff}
.grey     {fill:#cccbc8}
#eap      {fill:none; stroke:#fa930d; stroke-width:2.22252035; stroke-miterlimit:4; stroke-opacity:1; stroke-dasharray:none}
#eap-grey {fill:none; stroke:#cccbc8; stroke-width:3.4000001; stroke-miterlimit:4; stroke-opacity:1; stroke-dasharray:none}
</style><g id="idea"><path id="path4551" d="m0,6.919c0,1.1,0.9,2,2,1.974s1.972-0.888,1.972-1.974-0.886-1.969-1.972-1.969-2,0.883-2,1.969z" class="orange" fill="#fa930d"/><path id="path4553" d="m11.758,0c-1.082,0-1.729,0.873-1.729,2.333v9.005c0,1.5,0.6,2.3,1.7,2.333s1.729-0.873,1.729-2.333v-8.975c0.027-1.49-0.62-2.363-1.7-2.363z" class="blue" fill="#136ba2"/><path id="path4555" class="blue" fill="#136ba2" d="M8.73,0.189h-7.078v0.004c-0.921,0.036-1.652,0.791-1.652,1.72,0,0.9,0.7,1.7,1.7,1.7v0.014h3.622v3.138c0,0.026-0.005,0.05-0.005,0.076h0.01v0.1c0,1.825-1.486,3.31-3.311,3.31l-0.088-0.005-0.012,0.011c-0.047-0.004-0.097-0.006-0.148-0.006-0.951,0-1.723,0.77-1.723,1.722,0,1,0.8,1.7,1.7,1.721l0.156-0.006h0.004l0.1,0.004c3.725,0,6.756-3.029,6.756-6.753v-1.18c-0.031-0.019-0.031-5.414-0.031-5.57z"/></g><g id="rs"><path id="path46" class="red1" fill="#9a3965" d="m0,25.108,0,8.6783,3.2669,0c0-0.11388,0.00205-8.4774,0.00205-8.4774,0-0.55564,0.34327-2.1415,1.8668-2.1415,0.93626,0,1.6162,0.73087,1.6162,1.7379,0,0.9459-0.73825,1.448-1.3579,1.8114l-0.2458,0.148c-0.55379,0.36626-0.83592,0.87737-0.83592,1.5182,0,0.53184,0.19882,0.97319,0.23801,1.0563l0.21524,0.37405,2.247,3.1865c0.00164,0.001,0.037344,0.0556,0.037344,0.0556-0.00103-0.001,0.30224,0.43602,0.30224,0.43602,0.17892,0.2335,0.42514,0.40852,0.77703,0.49532,0.44156,0.10916,0.93482,0.0086,1.2898-0.22837,0.35087-0.23432,0.55605-0.53471,0.63217-0.94016l0.02667-0.26797c-0.001-0.309-0.1417-0.833-0.4717-1.277-0.1643-0.255-1.696-2.331-1.8214-2.579l-0.044935-0.08905,0.082279-0.05786c1.3171-0.92251,2.104-2.422,2.104-4.0116v-0.13665c0-1.1094-0.39108-2.1692-1.0739-2.9075-0.8904-0.961-2.2104-1.491-3.7166-1.491-2.8796,0-5.1358,2.243-5.1358,5.107"/><path id="path50" class="orange" fill="#fa930d" d="m13.134,28.102-1.6259,0.001,0.36338-1.8335,1.6269-0.0018-0.36441,1.8344zm4.1033-7.8662-2.5431,0-0.77498,3.9096-1.6269,0.0021,0.77621-3.9116-2.5426,0-0.33363,1.7539c0.36461,0.72307,0.56652,1.5551,0.56652,2.4101v0.13686c0,1.623-0.73025,3.1365-1.9294,4.219,0.2495,0.35394,0.5856,0.82012,0.82997,1.1587,0,0,0.61309,0.85931,0.61596,0.8626,0.25669,0.34574,0.42042,0.71732,0.5183,1.053l0.29362-1.6058,1.6269-0.001-0.71158,3.5846h2.542l0.71158-3.5864,1.6917-0.0018,0.42083-2.1222-1.6909,0.0018,0.36338-1.8333,1.692-0.0018,0.42083-2.1222-1.6917,0.0018,0.77498-3.9077z"/></g><g id="py"><path id="path3991" d="m9.6285,43.675-0.05474,0c-1.1644,0-2.1148,0.78123-2.3835,1.8312h-0.01493c-0.18411,0.97032-1.035,1.7068-2.0601,1.7068-1.1594,0-2.0999-0.94046-2.0999-2.0999,0-0.07962,0.01-0.15426,0.0199-0.22889,0-0.0199,0-0.03483,0.005-0.04976,0.005-0.02986,0.01-0.05971,0.01493-0.08957,0.41798-1.9854,1.7316-3.6424,3.4931-4.5431-0.4527-0.128-0.9354-0.203-1.433-0.203-2.6771,0-4.8665,2.0551-5.0954,4.6724-0.005,0.0199-0.01493,0.03981-0.0199,0.05474v7.4689h3.0254v-2.4133c0.6419,0.28861,1.3435,0.44784,2.0899,0.44784,2.8264,0,5.1203-2.2889,5.1203-5.1153,0-0.50257-0.07962-0.98524-0.21397-1.4381h-0.3931z" class="orange" fill="#fa930d"/><path id="path3993" d="m10.355,40.958c0,0.21894,0.17914,0.3931,0.39808,0.3931,0.21397,0,0.3931-0.17416,0.3931-0.3931s-0.17914-0.3931-0.3931-0.3931c-0.21894,0-0.39808,0.17416-0.39808,0.3931m1.9207,1.4629c-0.27866,0.44286-0.77128,0.73644-1.3336,0.73644h-0.01-1.3037-0.08957c-1.3833,0-2.5377,0.95539-2.8562,2.2392l-0.01,0.01493c-0.1443,0.7464-0.79616,1.2888-1.5575,1.2888-0.8708,0-1.5824-0.71156-1.5824-1.5873,0-0.09454,0.01493-0.19904,0.03981-0.30851,0.59712-2.7467,3.0403-4.8068,5.9662-4.8068h0.02986,1.3734c0.8708,0,1.5824,0.70659,1.5824,1.5824,0,0.06469-0.01,0.1244-0.0199,0.18909-0.09952,0.05474-0.20402,0.10947-0.31349,0.15923-0.61702,0.30354-1.5027,0.11445-1.9755,0.01493,0,0.005-0.005,0.01,0,0.01493,0.09952,0.17416,0.30851,0.3732,0.54736,0.47769,0.47272,0.15923,0.81606,0.16918,1.3684,0.02986,0.04976-0.01,0.09454-0.02986,0.1443-0.04478m0.2488,8.2153c0,0.87577-0.71156,1.5824-1.5824,1.5824h-0.01-1.3634-0.02985c-1.5326,0-2.9259-0.56726-3.9957-1.4978,1.4132-0.1045,2.6821-0.73147,3.6126-1.6918,0.1244,0.01493,0.25378,0.02488,0.38315,0.02488,0.02985,0,1.3833,0.005,1.4032,0,0.8708,0,1.5824,0.71156,1.5824,1.5824" class="green1" fill="#4f7f4b"/></g><g id="ruby"><path id="path4579" class="orange" fill="#fa930d" d="m13.982,70.347c-0.146-0.234-1.53-2.126-1.646-2.354l-0.041-0.08,0.074-0.053c1.188-0.842,1.9-2.208,1.9-3.659v-0.123c0-1.012-0.352-1.979-0.971-2.65-0.723-0.789-1.76-1.25-2.949-1.335v2.928c0.625,0.2,1,0.8,1,1.519,0,0.863-0.666,1.318-1.229,1.653l-0.221,0.135c-0.5,0.333-0.754,0.8-0.754,1.4,0,0.5,0.2,0.9,0.2,0.962l0.193,0.34,2.029,2.906c0.002,0,0,0.1,0,0.05l0.3,0.4c0.166,0.2,0.4,0.4,0.7,0.451,0.4,0.1,0.8,0,1.168-0.209,0.316-0.214,0.504-0.485,0.574-0.855l0.021-0.243c0.079-0.255-0.002-0.755-0.302-1.183z"/><path id="path4581" class="red2" fill="#b7334f" d="m9.696,60.06c-0.365,0.029-0.727,0.098-1.061,0.212v-0.005c-0.03,0.013-0.061,0.023-0.088,0l-0.307,0.12-0.113,0.056-0.297,0.151v0.004c-0.24,0.142-0.463,0.3-0.672,0.48-0.764-0.667-1.752-1.076-2.843-1.076-2.386,0-4.315,1.932-4.315,4.315v8.24h2.932l0.003-2.785h0.008v-1.454h-0.008l0.002-0.673,0.006-3.328h-0.002l-0.004-0.015c0-0.762,0.62-1.379,1.381-1.379,0.753,0,1.4,0.6,1.4,1.368v0.015h-0.002v3.306h-0.005l0.005,4.936h2.937l0.004-5.015,0.004-3.229h-0.002v-0.027c0-0.037,0.008-0.07,0.012-0.105v-0.071c0.078-0.567,0.502-1.021,1.055-1.146l-0.03-2.895z"/></g><g id="dt" fill-rule="nonzero"><path id="path3915" fill="#f3972a" d="m4.2675,88.407c0,1.0451,0.85349,1.8986,1.8986,1.8986s1.8986-0.85349,1.8986-1.8986c0-1.0509-0.85349-1.8986-1.8986-1.8986s-1.8986,0.84769-1.8986,1.8986"/><path id="path3917" fill="#9a3965" d="m13.958,82.711c-0.31353-0.31933-0.73156-0.4819-1.1786-0.4761h-0.46448v-0.62706c0-0.42965-0.16838-0.83027-0.47029-1.138-0.30192-0.30192-0.70834-0.47029-1.138-0.47029-0.43546,0-0.83607,0.16838-1.1438,0.47029-0.30192,0.30772-0.47029,0.70834-0.47029,1.138l-0.00581,6.7815c0,1.6083-1.3122,2.9205-2.9263,2.9263-0.20321,0-0.40062-0.02323-0.59222-0.05806-1.3528-0.27869-2.334-1.4864-2.334-2.874,0.00581-1.6083,1.3238-2.9205,2.9321-2.9263h1.9508v-3.2282h-1.9566c-1.6489,0-3.1933,0.64447-4.3545,1.8057-1.1677,1.16-1.8064,2.711-1.8064,4.354,0,0.58061,0.081285,1.1554,0.24385,1.7186,0,0,0.081285,0.26127,0.081285,0.26127,0.005806,0.0058,0.098703,0.27288,0.098703,0.27288s0.063867,0.13935,0.098703,0.21482l-0.005806,0.0058,0.011612,0.02322c0.005806,0.0058,0.075479,0.14515,0.11032,0.22063h-0.005806l0.005806,0.01742c0.005806,0.01161,0.12193,0.22644,0.12193,0.22644s0.011612,0.02322,0.011612,0.02322c0,0.0058,0.13354,0.22644,0.13354,0.22644,0.005806,0.01161,0.12773,0.20321,0.12773,0.20321s0.023224,0.04064,0.023224,0.04064c0.00581,0,0.12773,0.17418,0.12773,0.17418,0,0.0058,0.046449,0.05806,0.046449,0.05806l-0.017418-0.01742,0.16257,0.19741-0.02903-0.02322,0.02903,0.03484,0.16257,0.19741c0.011612,0.0058,0.1916,0.20321,0.1916,0.20321,0.00581,0.0058,0.39481,0.37739,0.39481,0.37739l0.1916,0.15676,0.12773,0.0987c0.023224,0.01742,0.052255,0.03484,0.081285,0.05806l0.13935,0.0987c0,0.0058,0.069673,0.05225,0.069673,0.05225l0.11032,0.06967c0.00581,0,0.11032,0.06967,0.11032,0.06967l0.14515,0.08709,0.075479,0.04064c0.011613,0.0058,0.1916,0.0987,0.1916,0.0987l-0.02903-0.01161,0.075479,0.04064,0.16257,0.07548s0.069673,0.03484,0.069673,0.03484c0.011613,0,0.17418,0.06967,0.17418,0.06967l0.075479,0.03484c0.00581,0,0.17418,0.06387,0.17418,0.06387,0.00581,0,0.081285,0.02903,0.081285,0.02903-0.00581,0,0.17418,0.05806,0.17418,0.05806l0.069673,0.02322,0.17999,0.04645,0.040642,0.01161c0.011613,0.0058,0.02903,0.0058,0.040642,0.0058v0.0058l0.19741,0.04645h0.023224v0.0058c0.4237,0.087,0.8592,0.133,1.283,0.133,3.3965,0,6.1544-2.7695,6.1544-6.166v-2.9263h0.45868c0.44707,0.01742,0.8651-0.15096,1.1844-0.47029,0.62706-0.62706,0.62706-1.6489,0-2.276"/><path id="path3919" fill="#fa930d" d="m4.2675,88.407c0,1.0451,0.85349,1.8986,1.8986,1.8986s1.8986-0.85349,1.8986-1.8986c0-1.0509-0.85349-1.8986-1.8986-1.8986s-1.8986,0.84769-1.8986,1.8986"/></g><g id="dc"><path id="path4030" d="m11.189,109.05c0.34387-0.7442,0.5389-1.5654,0.5389-2.4379,0-0.87251-0.19503-1.6988-0.5389-2.443-1.2523,0.10778-2.248,1.1548-2.248,2.4379,0,1.2882,0.99569,2.3352,2.248,2.443" class="red1" fill="#9a3965"/><path id="path4032" d="m3.9417,106.61c0-2.3353,1.0829-4.4242,2.7766-5.7945-0.2822-0.05-0.5645-0.07-0.8571-0.07-3.2385,0-5.8612,2.62-5.8612,5.86,0,3.2386,2.6227,5.8612,5.8612,5.8612,0.29255,0,0.57996-0.0257,0.85712-0.0667-1.6937-1.3704-2.7766-3.4593-2.7766-5.7996" class="red1" fill="#9a3965"/><path id="path4034" d="m11.476,100.01-0.0051,0-0.06672-0.005c-3.644,0-6.6106,2.9666-6.6106,6.6106s2.9665,6.6054,6.6106,6.6054c0.02566,0,0.52864-0.005,0.52864-0.005,0.04106,0.005,0.06159,0.005,0.06159,0.005,0.91357,0,1.6475-0.73907,1.6475-1.6475,0-0.90844-0.73394-1.6475-1.6475-1.6475-0.02053,0-0.05646,0.005-0.05646,0.005-0.03079-0.005-0.53377-0.005-0.53377-0.005-1.8271,0-3.3155-1.4833-3.3155-3.3104,0-1.8323,1.4884-3.3156,3.3155-3.3156,0.04619,0,0.07185,0.005,0.07185,0.005,0.04106-0.0103,0.51838-0.005,0.51838-0.005,0.91357,0,1.6475-0.73907,1.6475-1.6475,0-0.90844-0.73394-1.6475-1.6475-1.6475-0.02053,0-0.51838,0.005-0.51838,0.005" class="orange" fill="#fa930d"/></g><g id="dp"><path id="path556" class="red1" fill="#9a3965" d="m9.344,127.19c0,0.841-0.682,1.521-1.523,1.521s-1.521-0.683-1.521-1.521,0.68-1.523,1.521-1.523c0.842-0.027,1.508,0.673,1.508,1.473"/><path id="path558" class="red1" fill="#9a3965" d="m10.417,121.98h-0.086v3.17h0.086c1.131,0,2.1,0.9,2.1,2.049,0,1.132-0.92,2.039-2.051,2h-4.375v3.817h0.006c0.027,1,0.8,1.7,1.8,1.729,0.98,0,1.775-0.795,1.775-1.775,0-0.032-0.004-0.063-0.004-0.096v-0.493h0.822c2.883,0,5.217-2.336,5.217-5.221-0.074-2.824-2.378-5.224-5.278-5.224"/><path id="path560" class="orange" fill="#fa930d" d="m5.221,132.39h0.086v-3.171h-0.086c-1.133,0-2.047-0.917-2.047-2.053,0-1.13,0.914-2.036,2.047-2.036h4.371v-3.401h-0.006c-0.023-0.958-0.805-1.729-1.771-1.729-0.979,0-1.776,0.799-1.776,1.777v0.178h-0.82c-2.881,0-5.219,2.33-5.219,5.21,0.002,2.862,2.329,5.262,5.229,5.262"/></g><g id="tc"><path id="path498" class="blue" fill="#136ba2" d="m11.734,146.6c0,1.1,0.9,2,2,1.96,1.079,0,1.961-0.879,1.961-1.96s-0.882-1.96-1.961-1.96c-1.119,0-2.008,0.9-2.008,1.96z"/><path id="path500" class="orange" fill="#fa930d" d="m13.781,140.01h-0.007l-0.063-0.01c-3.633,0-6.596,2.957-6.596,6.591s2.963,6.6,6.6,6.6h0.063,0.1c0.908,0,1.645-0.738,1.645-1.646,0-0.904-0.734-1.643-1.645-1.643h-0.061c-0.027-0.01-0.072,0-0.072,0-1.82,0-3.305-1.483-3.305-3.307s1.482-3.309,3.305-3.309h0.1,0.063c0.908,0,1.644-0.735,1.644-1.644s-0.733-1.644-1.644-1.644c-0.084,0.036-0.082,0.036-0.082,0.01z"/><path id="path502" class="blue" fill="#136ba2" d="M6.195,140h-4.509c-0.455-0.012-0.888,0.16-1.207,0.483-0.31,0.311-0.479,0.728-0.479,1.2,0,0.4,0.2,0.9,0.5,1.167,0.321,0.3,0.8,0.5,1.2,0.481l0.6,0.001v9.9h3.3v-9.875h0.595c0.457,0,0.886-0.155,1.211-0.479,0.644-0.645,0.644-1.688,0-2.332-0.33-0.41-0.78-0.51-1.18-0.542z"/></g><g id="ws"><path id="path146" class="blue_ws" fill="#2788b5" d="m8.6563,172.05c0.15017-0.1888,0.3279-0.39502,0.53806-0.63743l0.10518-0.12111c0.13049-0.1513,0.2396-0.26847,0.34459-0.38152,0.20829-0.22442,0.38808-0.41808,0.71711-0.86597,0.32228-0.44001,0.53094-0.77072,0.49701-1.3375-0.01687-0.29228-0.02868-0.49232-0.21898-0.72705-0.11418-0.14154-0.32678-0.34646-0.55138-0.56318-0.2444-0.23-0.4563-0.45-0.7433-0.75-0.2874-0.3-0.6588-1.06-0.6588-1.06-0.111-0.26-0.3176-0.78-0.3753-1.27l-0.8444-4.3304h-2.4061l-1.177,5.4613-1.0426-5.4613h-2.8405l2.5626,12.407h2.3924l1.1961-5.3705,1.0579,5.3705h1.1102l0.3369-0.36033z"/><path id="path150" class="orange" fill="#fa930d" d="m13.664,160.74c0.25103-0.29153,0.4582-0.52719,0.62843-0.74186h-3.8167c-0.22685,0.29003-0.68805,0.84909-0.95127,1.3446-0.34777,0.65618-0.63387,1.1489-0.66199,2.357l0.01237,0.3892c0,0.57594,0.4117,1.4218,0.4117,1.4218,0.06487,0.14999,0.28272,0.4672,0.4222,0.66068h-0.003c0.04556,0.0607,0.07574,0.10011,0.07574,0.10011,0.41133,0.4717,1.0339,0.99776,1.3086,1.336,0.32134,0.39633,0.32978,0.76847,0.34721,1.0578,0.04649,0.78254-0.26997,1.254-0.60837,1.716-0.51219,0.69761-0.69648,0.82697-1.0904,1.2835-0.25122,0.29115-0.45801,0.527-0.62862,0.73979h3.9432c0.23154-0.29659,0.56056-0.84459,0.82491-1.3435,0.34759-0.65618,0.63443-1.1487,0.66236-2.356l-0.01312-0.38958c0-0.57688-0.41189-1.4228-0.41189-1.4228-0.06431-0.14942-0.28291-0.46551-0.4222-0.66049h0.0034c-0.045-0.0598-0.07574-0.0995-0.07574-0.0995-0.41152-0.47188-1.0339-0.99776-1.3084-1.3362-0.32115-0.39708-0.32996-0.76942-0.34721-1.0583-0.0465-0.78141,0.27016-1.2539,0.60856-1.7158,0.512-0.69611,0.69611-0.82659,1.0902-1.2824"/></g><g id="ps"><path id="path4068" d="m8.1274,192.4,1.1284,0,0.33546-0.36088c0.15248-0.18806,0.3253-0.39646,0.53877-0.63535l0.10166-0.12198c0.13215-0.15249,0.24397-0.26939,0.34563-0.38121,0.20839-0.22364,0.39137-0.41679,0.71667-0.86916,0.3253-0.43712,0.5337-0.7675,0.49812-1.3368-0.0153-0.28972-0.0305-0.48795-0.21856-0.72684-0.11691-0.13724-0.3253-0.34563-0.55403-0.55911-0.24397-0.23381-0.45237-0.45745-0.74208-0.75733-0.28464-0.29989-0.65568-1.0623-0.65568-1.0623-0.13216-0.29481-0.39138-0.95557-0.39138-1.4994l-0.0102-0.37104v-0.0407h-4.2136v3.0293c0.21348-0.27447,0.52353-0.36596,0.81325-0.36596,0.46762,0,0.86916,0.27447,0.86916,0.87932v3.1005h-1.0928v-2.7295c0-0.24397-0.10166-0.35579-0.28972-0.35579-0.2084,0-0.29989,0.13215-0.29989,0.35579v2.7295h-1.0979v-6.6432h-3.9087v8.7221h0.79291v-5.9519h0.98606v0.46253c0.22873-0.39137,0.57436-0.56927,0.89458-0.56927,0.5591,0,0.95556,0.43203,0.95556,1.2148v1.7739c0,0.66076-0.44729,1.103-0.95556,1.103-0.29481,0-0.54386-0.13723-0.78784-0.45745v2.4245h5.1438v-5.9519h0.98606v0.46253c0.23381-0.39137,0.57944-0.56927,0.89458-0.56927,0.56418,0,0.95556,0.43203,0.95556,1.2148v1.7739c0,0.66076-0.4422,1.103-0.95556,1.103-0.29481,0-0.53878-0.13723-0.78275-0.45745v2.4245z" class="blue_ps" fill="#5e64b2"/><path id="path4070" d="m8.7729,189.11,0-1.3978c0-0.31005-0.10674-0.4727-0.3253-0.4727-0.21347,0-0.32021,0.16265-0.32021,0.4727v1.3978c0,0.31005,0.10674,0.45237,0.32021,0.45237,0.21856,0,0.3253-0.14232,0.3253-0.45237" class="blue_ps" fill="#5e64b2"/><path id="path4072" d="m2.5364,189.11,0-1.3978c0-0.31005-0.11182-0.4727-0.3253-0.4727-0.21347,0-0.3253,0.16265-0.3253,0.4727v1.3978c0,0.31005,0.11183,0.45237,0.3253,0.45237,0.21348,0,0.3253-0.14232,0.3253-0.45237" class="blue_ps" fill="#5e64b2"/><path id="path4074" d="m14.593,180.74c0.25414-0.28972,0.46254-0.52353,0.63027-0.74209h-3.8121c-0.22873,0.28972-0.69126,0.84883-0.95048,1.3469-0.35072,0.65568-0.63535,1.1487-0.66585,2.3533l0.0152,0.39137c0,0.57436,0.4117,1.4181,0.4117,1.4181,0.0661,0.15248,0.27956,0.46762,0.42188,0.66076h-0.005c0.0457,0.061,0.0763,0.10166,0.0763,0.10166,0.4117,0.4727,1.0318,0.99623,1.3063,1.3368,0.3253,0.39646,0.33038,0.7675,0.35071,1.0572,0.0458,0.77767-0.26938,1.2504-0.60993,1.7129-0.51336,0.69634-0.69634,0.8285-1.0877,1.2809-0.25414,0.28972-0.45745,0.52861-0.63026,0.74209h3.9392c0.23381-0.29988,0.5591-0.84374,0.82849-1.3419,0.34563-0.65568,0.63027-1.1487,0.66076-2.3584l-0.0152-0.38629c0-0.57436-0.41171-1.4232-0.41171-1.4232-0.061-0.1474-0.27955-0.46254-0.42187-0.66076h0.005c-0.0457-0.061-0.0762-0.0966-0.0762-0.0966-0.4117-0.4727-1.0318-1.0013-1.3063-1.3368-0.32022-0.39646-0.33038-0.7675-0.35071-1.0572-0.0457-0.78275,0.26938-1.2554,0.60993-1.7129,0.51336-0.70142,0.69634-0.82849,1.0877-1.2859" class="orange" fill="#fa930d"/></g><g id="yt"><path id="path510" class="orange" fill="#fa930d" d="m10.466,206.02c-0.658-1.782-2.635-2.691-4.414-2.034-0.02,0.01-0.037,0.016-0.057,0,0.01,0,0,0,0,0.063,0.303,0.818-0.115,1.726-0.936,2.028-0.371,0.136-0.758,0.119-1.098-0.012-0.254,0.725-0.268,1.5,0,2.311,0.656,1.8,2.6,2.7,4.4,2.035,1.851-0.61,2.806-2.61,2.106-4.391z"/><path id="path512" class="blue" fill="#136ba2" d="m6.664,205.64c-0.867,0.319-1.311,1.282-0.992,2.147,0.32,0.9,1.3,1.3,2.1,1,0.865-0.32,1.307-1.282,0.99-2.147-0.272-0.841-1.195-1.341-2.095-1z"/><path id="path514" class="blue" fill="#136ba2" d="m14.558,202.61c0-0.147-0.059-0.288-0.166-0.394-0.104-0.104-0.24-0.16-0.393-0.159-0.153,0-0.289,0.059-0.395,0.164l-1.182,1.188c-0.072-0.102-0.15-0.196-0.229-0.293l1.146-1.157c0.104-0.104,0.16-0.244,0.16-0.393s-0.058-0.29-0.16-0.395c-0.108-0.104-0.246-0.161-0.395-0.16s-0.289,0.059-0.396,0.2l-1.139,1.145c-0.095-0.081-0.189-0.157-0.293-0.231l1.168-1.172c0.104-0.106,0.162-0.246,0.162-0.394s-0.063-0.288-0.166-0.396c-0.104-0.104-0.246-0.162-0.393-0.162s-0.291,0.062-0.396,0.166l-1.34,1.4c-1.544-0.784-3.395-0.955-5.145-0.31-0.164,0.063-0.324,0.136-0.483,0.207l-3.423-0.672,1.787,1.8c-0.131,0.121-0.254,0.249-0.375,0.378l-1.783-1.758,0.707,3.344c-0.723,1.512-0.861,3.305-0.234,5,0.098,0.3,0.2,0.5,0.3,0.751l-1.34,1.349c-0.105,0.106-0.164,0.247-0.162,0.396,0,0.1,0.1,0.3,0.2,0.4,0.105,0.1,0.2,0.2,0.4,0.164,0.15,0,0.289-0.061,0.396-0.165l1.159-1.17c0.077,0.1,0.2,0.2,0.2,0.282l-1.139,1.1c-0.104,0.105-0.162,0.246-0.16,0.395,0,0.1,0.1,0.3,0.2,0.393,0.107,0.1,0.2,0.2,0.4,0.2,0.148,0,0.285-0.057,0.393-0.164l1.148-1.157c0.1,0.1,0.2,0.2,0.3,0.229l-1.184,1.2c-0.104,0.104-0.162,0.246-0.16,0.395,0,0.1,0.1,0.3,0.2,0.393,0.107,0.1,0.2,0.2,0.4,0.2,0.146,0,0.287-0.059,0.393-0.165l1.379-1.392c1.512,0.7,3.3,0.9,5,0.228,0.467-0.171,0.893-0.394,1.293-0.654,0.287,0.2,0.5,0.4,0.5,0.41,0.077,0.1,0.1,0.297-0.027,0.473l-0.15,0.189c-0.092,0.114-0.131,0.259-0.109,0.4,0.016,0.1,0.1,0.3,0.2,0.367,0.118,0.1,0.3,0.1,0.4,0.114,0.146-0.019,0.282-0.093,0.37-0.206l0.195-0.245c0.478-0.606,0.23-1.461-0.291-1.87l-0.33-0.261c0.449-0.408,0.834-0.873,1.15-1.38,0.17,0.1,0.3,0.2,0.3,0.227,0.08,0.1,0.1,0.298-0.027,0.472l-0.146,0.19c-0.094,0.115-0.137,0.26-0.113,0.4,0.016,0.1,0.1,0.3,0.2,0.371,0.115,0.1,0.3,0.1,0.4,0.113,0.148-0.017,0.277-0.09,0.369-0.206l0.193-0.244c0.479-0.606,0.234-1.462-0.285-1.871l-0.439-0.345c0.613-1.451,0.704-3.13,0.115-4.728-0.075-0.202-0.161-0.4-0.254-0.591l1.371-1.386c0.09-0.256,0.157-0.356,0.157-0.547zm-11.572,6.19c-0.867-2.351,0.334-4.959,2.684-5.826s5,0.3,5.8,2.687c0.867,2.35-0.332,4.957-2.686,5.8-2.32,0.839-4.917-0.361-5.817-2.682z"/></g><g id="objc"><path id="path550" class="orange" fill="#fa930d" d="M8.531,220h-0.623v12.86h0.623c3.553,0,6.432-2.878,6.432-6.431-0.001-3.595-2.838-6.395-6.438-6.429zm0.474,7.89s-0.106-1.829,0.074-2.149c0.268-0.475,1.42-0.237,1.4,0.482,0.02,1.011-1.454,1.711-1.454,1.667z"/><path id="path552" class="green2" fill="#556780" d="m6.712,225.74c-0.27-0.475-1.418-0.237-1.418,0.482,0,1,1.5,1.7,1.5,1.667-0.009,0.044,0.131-1.856-0.069-2.149z"/><path id="path554" class="green2" fill="#556780" d="m6.048,229.73c-1.651-0.188-2.942-1.598-2.942-3.302,0-1.719,1.308-3.133,2.979-3.307l0.074-0.016c0.742-0.119,1.309-0.76,1.309-1.531,0-0.855-0.694-1.551-1.551-1.551h-0.098-0.063c-3.232,0.34-5.756,3.08-5.756,6.4,0,3.3,2.5,6.1,5.8,6.397h0.1c0.855,0,1.551-0.695,1.551-1.552,0.019-0.844-0.626-1.444-1.426-1.547z"/></g><g id="kotlin"><path id="path542" class="blue_k" fill="#607fab" d="m0.064013,251v0.043c0.009,1.2,1,2.1,2.1,2.09,1.158-0.01,2.1-0.956,2.091-2.114l-0.013-2.313-4.178,2.294z"/><path id="path544" class="blue_k" fill="#607fab" d="m12.782,250.93c-0.041-0.45-0.236-0.868-0.552-1.19l-0.005-0.011-3.805-3.313-3.649,1.998,4.776,4.2c0.357,0.3,0.8,0.5,1.3,0.475,0.057,0,0.115,0,0.17-0.01,0.521-0.048,0.992-0.297,1.328-0.702,0.323-0.442,0.481-0.942,0.481-1.448z"/><path id="path546" class="blue_k" fill="#607fab" d="m4.217,242.43-0.002-0.223c0.002-0.02,0.002-0.034,0.002-0.054-0.004-1.161-0.959-2.104-2.119-2.094s-2.102,0.957-2.098,2.116l0.016,2.578,4.201-2.323z"/><path id="path548" class="orange" fill="#fa930d" d="m0.028013,245.66,9.807-5.424c0.287-0.153,0.604-0.236,0.92-0.238,0.205-0.001,0.4,0,0.6,0.1,1.033,0.3,1.6,1.4,1.3,2.469-0.137,0.432-0.414,0.799-0.787,1.046l-0.008,0.01-0.119,0.068-11.668,6.4-0.045-4.429z"/></g><g id="mps"><path id="path536" class="orange" fill="#fa930d" d="m16.724,264.01c-0.096,0.776-0.389,1.431-0.852,1.931-0.064,0.063-0.119,0.125-0.213,0.2,0.075,0,0.3,0.1,0.4,0.129,0.277,0.1,0.6,0.4,0.6,0.827,0,0.545-0.531,0.968-1.361,1-0.744,0-1.064-0.203-1.277-0.486-0.109-0.147-0.113-0.209-0.279-0.328-0.188-0.137-0.572-0.116-0.572-0.116h-1.428s-0.385-0.01-0.486,0.173c-0.107,0.179-0.131,0.291-0.043,0.502,0.494,1.3,1.7,2.1,3.8,2.1,3.299,0,4.15-1.496,4.15-3.078-0.04-1.434-0.835-2.434-2.435-2.854z"/><path id="path538" class="orange" fill="#fa930d" d="m11.886,264.38c1.654,0,1.77-0.342,1.77-0.905,0-0.119-0.012-0.222-0.029-0.315-0.012-0.043-0.021-0.086-0.023-0.127l-0.008-0.021h0.002c-0.002-0.06-0.002-0.118-0.002-0.173,0-0.461,0.236-1.109,1.51-1.109,1.076,0,1.4,0.3,1.6,0.805,0.055,0.1,0.1,0.3,0.2,0.424,0.162,0.2,0.5,0.2,0.5,0.189h0.896l0.592-0.166c0.141-0.139,0.201-0.271,0.164-0.479-0.25-1.57-1.484-2.5-4.008-2.5-2.641,0-3.957,1.356-3.957,3.077,0,0.5,0.1,0.9,0.4,1.308h0.393z"/><path id="path540" class="blue_mps" fill="#74838c" d="m16.386,263.44c0-0.146-0.01-0.287-0.021-0.424h-0.002c-0.02-0.162-0.039-0.32-0.074-0.468-0.125-0.317-0.4-0.438-1.184-0.438-1.139,0-1.139,0.55-1.139,0.731v0.174h-0.004c0.032,0.1,0.1,0.3,0.1,0.464,0,1.035-0.688,1.279-2.148,1.279h-1.186v-1.786l0.014-0.01c0.031-1.2,0.633-2.146,1.65-2.721h-4.813l-2.311,7.03-2.229-7.02h-3.039v9.387h2.262v-6.374l2,6.374h1.951l2.115-6.271v6.271h2.397v-2.945h2.206l0.363-0.012c0.035-0.01,0.07-0.01,0.104-0.012l0.246-0.029c0.037,0,0.07-0.01,0.105-0.016l0.313-0.062,0.033-0.01,0.262-0.078,0.102-0.035c0.063-0.023,0.127-0.05,0.188-0.076l0.092-0.041c0.084-0.043,0.164-0.084,0.244-0.131,0.913-0.55,1.445-1.45,1.445-2.746z"/></g><g id="omea"><path id="path436" class="blue" fill="#136ba2" d="m6.3971,280.39-0.14112,0.004c-0.12893,0.74793-0.26684,1.5517-0.30501,1.764,0.26235,0.25657,1.6036,1.5715,2.1168,2.0767,0.82265,0.54523,1.3791,1.4753,1.3791,2.5411,0,1.6844-1.365,3.0491-3.0488,3.0469-1.442,0-2.6492-1.0039-2.9654-2.3502l-0.32938-0.66839s-0.73349-1.4869-0.93651-1.8974l-1.8021-0.25c-0.23477,0.66-0.36466,1.38-0.36466,2.13,0,3.5279,2.8544,6.3824,6.3824,6.3981,3.5344,0,6.3981-2.8644,6.3981-6.3981,0.01507-3.5045-2.8628-6.391-6.3907-6.3846z"/><path id="path438" class="orange" fill="#fa930d" d="m3.5995,286.57,1.0905-2.1809,2.3733-0.3528-1.7319-1.6678,0.41694-2.3734-2.1488,1.1225-2.1168-1.1225,0.38487,2.3734-1.7319,1.6678,2.4054,0.3528z"/></g><g id="omear"><path id="path456" class="orange" fill="#fa930d" d="m6.8058,300.07c-0.63015,0-1.2386,0.0894-1.8141,0.25551l0.88566,3.3057c0.29256-0.0926,0.60556-0.14053,0.92846-0.14053,1.7183,0,3.0981,1.4053,3.0981,3.1108,0,1.7215-1.3929,3.114-3.1115,3.114s-3.1121-1.3925-3.1121-3.114c0-0.24274,0.02875-0.47909,0.08272-0.70585l-3.3066-0.88471c-0.12744,0.50783-0.1961,1.0412-0.1961,1.5906,0,3.6091,2.9384,6.5475,6.5475,6.5475s6.5321-2.9256,6.5321-6.5315c0-3.6283-2.9282-6.5347-6.5369-6.5475z"/><path id="path458" class="blue" fill="#136ba2" d="M4.1201,299.98,5.6212,305.6,0,304.07z"/></g><path id="eap" transform="matrix(1.5297947,0,0,1.5297947,-35.349192,-197.3591)" d="m30.45,342.42a3.1157,3.1157,0,1,1,-6.2314,0,3.1157,3.1157,0,1,1,6.2314,0z"/><g id="idea-grey" fill="#cccbc8"><path id="path568" class="grey" d="m0.04,346.92c0,1.1,0.9,2,2,1.98,1.1,0,1.97-0.89,1.97-1.98,0-1.08-0.88-1.965-1.97-1.965s-2,0.885-2,1.965z"/><path id="path570" class="grey" d="m11.8,340c-1.08,0-1.73,0.873-1.73,2.333v9.002c0,1.5,0.6,2.3,1.7,2.33,1.08,0,1.73-0.87,1.73-2.33v-8.972c0-1.49-0.62-2.363-1.7-2.363z"/><path id="path572" class="grey" d="m8.77,340.19h-7.09c-0.95,0.04-1.68,0.79-1.68,1.72,0,0.9,0.7,1.7,1.7,1.7v0.01h3.62v3.142,0.1,0.1c0,1.82-1.48,3.3-3.31,3.3h-0.1-0.15c-0.95,0-1.72,0.77-1.72,1.72,0,1,0.8,1.7,1.7,1.72h0.16,0.1c3.72,0,6.75-3.03,6.75-6.75v-1.2-5.566z"/></g><g id="rs-grey" fill="#cccbc8"><path id="path574" class="grey" d="m0,365.14v8.681h3.3c0-0.113,0.002-8.479,0.002-8.479,0-0.556,0.345-2.144,1.869-2.144,0.935,0,1.6,0.7,1.6,1.739,0,0.944-0.74,1.447-1.357,1.81l-0.245,0.1c-0.556,0.369-0.834,0.879-0.834,1.521,0,0.5,0.2,1,0.2,1.058l0.213,0.373,2.248,3.2c0.002,0,0,0.1,0,0.059,0-0.001,0.3,0.4,0.3,0.437,0.178,0.2,0.4,0.4,0.8,0.5,0.438,0.1,0.9,0,1.289-0.229,0.353-0.233,0.558-0.533,0.631-0.938l0.027-0.27c0-0.31-0.143-0.833-0.472-1.275-0.164-0.256-1.694-2.333-1.822-2.579l-0.045-0.09,0.082-0.059c1.315-0.923,2.104-2.422,2.104-4.013v-0.138c0-1.108-0.392-2.169-1.074-2.907-0.893-0.963-2.209-1.493-3.715-1.493-2.843,0.066-5.075,2.266-5.075,5.136z"/><path id="path576" class="grey" d="m17.241,360.27h-2.547l-0.771,3.91-1.627,0.002,0.774-3.912h-2.544l-0.332,1.8c0.364,0.7,0.6,1.6,0.6,2.41v0.138c0,1.624-0.729,3.138-1.926,4.221,0.25,0.4,0.6,0.8,0.8,1.2,0,0,0.6,0.9,0.6,0.864,0.256,0.3,0.4,0.7,0.5,1.053l0.293-1.605h1.627l-0.713,3.586h2.541l0.711-3.587,1.697-0.001,0.416-2.123-1.689,0.001,0.363-1.833,1.694-0.002,0.42-2.124-1.69,0.003,0.803-4.001zm-4.102,7.867h-1.629l0.362-1.834,1.63-0.001-0.363,1.835z"/></g><g id="pc-grey" fill="#cccbc8"><path id="path3991-0" d="m9.6285,383.69-0.05474,0c-1.1644,0-2.1148,0.78123-2.3835,1.8312h-0.01493c-0.18411,0.97031-1.035,1.7068-2.0601,1.7068-1.1594,0-2.0999-0.94046-2.0999-2.0999,0-0.0796,0.01-0.15426,0.0199-0.2289,0-0.0199,0-0.0348,0.005-0.0498,0.005-0.0299,0.01-0.0597,0.01493-0.0896,0.41798-1.9854,1.7316-3.6424,3.4931-4.5431-0.45281-0.12938-0.93548-0.20402-1.4331-0.20402-2.6771,0-4.8665,2.0551-5.0954,4.6724-0.005,0.0199-0.01493,0.0398-0.0199,0.0547v7.469h3.0254v-2.4134c0.6419,0.2886,1.3435,0.44783,2.0899,0.44783,2.8264,0,5.1203-2.2889,5.1203-5.1153,0-0.50257-0.07962-0.98524-0.21397-1.4381h-0.3931z" class="grey"/><path id="path3993-2" d="m10.355,380.97c0,0.21894,0.17914,0.3931,0.39808,0.3931,0.21397,0,0.3931-0.17416,0.3931-0.3931,0-0.21895-0.17914-0.39311-0.3931-0.39311-0.21894,0-0.39808,0.17416-0.39808,0.39311m1.9207,1.4629c-0.27866,0.44287-0.77128,0.73645-1.3336,0.73645h-0.01-1.3037-0.08957c-1.3833,0-2.5377,0.95539-2.8562,2.2392l-0.01,0.0149c-0.1443,0.74639-0.79616,1.2888-1.5575,1.2888-0.8708,0-1.5824-0.71157-1.5824-1.5873,0-0.0945,0.01493-0.19904,0.03981-0.30851,0.59712-2.7467,3.0403-4.8068,5.9662-4.8068h0.02986,1.3734c0.8708,0,1.5824,0.70659,1.5824,1.5824,0,0.0647-0.01,0.12439-0.0199,0.18908-0.09952,0.0547-0.20402,0.10947-0.31349,0.15923-0.61702,0.30354-1.5027,0.11445-1.9755,0.0149,0,0.005-0.005,0.01,0,0.0149,0.09952,0.17416,0.30851,0.3732,0.54736,0.4777,0.47272,0.15923,0.81606,0.16918,1.3684,0.0299,0.04976-0.01,0.09454-0.0299,0.1443-0.0448m0.2488,8.2153c0,0.87577-0.71156,1.5824-1.5824,1.5824h-0.01-1.3634-0.02985c-1.5326,0-2.9259-0.56726-3.9957-1.4978,1.4132-0.1045,2.6821-0.73147,3.6126-1.6918,0.1244,0.0149,0.25378,0.0249,0.38315,0.0249,0.02985,0,1.3833,0.005,1.4032,0,0.8708,0,1.5824,0.71156,1.5824,1.5824" class="grey"/></g><g id="ruby-grey" fill="#cccbc8"><path id="path596" class="grey" d="m13.99,410.33c-0.14-0.24-1.53-2.13-1.64-2.36v-0.1h0.1c1.19-0.84,1.9-2.21,1.9-3.66v-0.13c-0.1-1.01-0.42-1.98-1.04-2.65-0.72-0.79-1.76-1.25-2.95-1.33v2.93c0.63,0.2,1,0.8,1,1.51,0,0.87-0.66,1.32-1.23,1.66l-0.22,0.13c-0.5,0.34-0.76,0.8-0.76,1.4,0,0.5,0.2,0.9,0.2,0.96l0.2,0.34,2.03,2.91v0.1l0.3,0.4c0.17,0.2,0.4,0.4,0.7,0.46,0.4,0.1,0.8,0,1.17-0.21,0.32-0.22,0.5-0.49,0.57-0.86v-0.24c0.1-0.26,0-0.76-0.3-1.18z"/><path id="path598" class="grey" d="m9.7,400.03c-0.36,0-0.72,0.1-1.06,0.22h-0.1l-0.3,0.12-0.11,0.1-0.3,0.15c-0.24,0.14-0.46,0.3-0.68,0.48-0.76-0.66-1.75-1.07-2.84-1.07-2.38,0-4.31,1.93-4.31,4.31v8.25h2.93v-2.79-1.46-0.67-3.33c0-0.76,0.62-1.38,1.38-1.38s1.4,0.6,1.4,1.37v3.31,4.94h2.94v-5.02-3.23-0.11-0.1c0.1-0.57,0.51-1.03,1.06-1.15v-2.9z"/></g><g id="dt-grey" fill="#cccbc8"><path id="path3917-6" class="grey" d="m13.958,422.59c-0.31353-0.31933-0.73156-0.4819-1.1786-0.4761h-0.46448v-0.62705c0-0.42965-0.16838-0.83027-0.47029-1.138-0.30192-0.30191-0.70834-0.47029-1.138-0.47029-0.43546,0-0.83607,0.16838-1.1438,0.47029-0.30192,0.30772-0.47029,0.70834-0.47029,1.138l-0.0058,6.7815c0,1.6083-1.3122,2.9205-2.9263,2.9263-0.20321,0-0.40062-0.0232-0.59222-0.0581-1.3528-0.27869-2.334-1.4864-2.334-2.874,0.0058-1.6083,1.3238-2.9204,2.9321-2.9263h1.9508v-3.2282h-1.9566c-1.6489,0-3.1933,0.64447-4.3546,1.8057-1.1676,1.16-1.8063,2.71-1.8063,4.35,0,0.58061,0.08128,1.1554,0.24386,1.7186l0.08128,0.26127c0.0058,0.006,0.0987,0.27289,0.0987,0.27289s0.06387,0.13934,0.0987,0.21482l-0.0058,0.006c0.043182,0.0801,0.081406,0.1628,0.12192,0.24383h-0.0058l0.0058,0.0174c0.0058,0.0116,0.12193,0.22644,0.12193,0.22644,0.042654,0.0864,0.096787,0.16646,0.14515,0.24964,0.0058,0.0116,0.12773,0.20321,0.12773,0.20321,0.10148,0.14539,0.20902,0.28646,0.31352,0.42969,0.0643,0.077,0.12773,0.1548,0.1916,0.2322,0.01161,0.006,0.1916,0.20322,0.1916,0.20322,0.0058,0.006,0.39481,0.37739,0.39481,0.37739l0.1916,0.15676,0.12773,0.0987c0.02322,0.0174,0.05226,0.0348,0.08129,0.0581l0.13934,0.0987c0.053854,0.0485,0.12014,0.0814,0.17999,0.1219,0.083982,0.054,0.17031,0.10453,0.25547,0.1568,0.080104,0.0411,0.1587,0.0851,0.23805,0.1277l0.07548,0.0406,0.16257,0.0755,0.06967,0.0348c0.01161,0,0.17418,0.0697,0.17418,0.0697l0.07548,0.0348c0.0058,0,0.17418,0.0639,0.17418,0.0639,0.0058,0,0.08129,0.029,0.08129,0.029-0.0058,0,0.17418,0.0581,0.17418,0.0581l0.06967,0.0232,0.17999,0.0464c0.025565,0.0124,0.055388,0.012,0.08128,0.0176,0.049604,0.0273,0.13576,0.036,0.19741,0.0524h0.02322c0.42781,0.10949,0.90174,0.1091,1.2831,0.13954,3.3965,0,6.1544-2.7695,6.1544-6.166v-2.9263h0.45868c0.44707,0.0174,0.8651-0.15095,1.1844-0.47029,0.62706-0.62705,0.62706-1.6489,0-2.276"/><path id="path3919-7" class="grey" d="m4.2674,428.28c0,1.0451,0.85349,1.8986,1.8986,1.8986s1.8986-0.85349,1.8986-1.8986c0-1.0509-0.85349-1.8986-1.8986-1.8986s-1.8986,0.84769-1.8986,1.8986"/></g><g id="dc-grey" fill="#cccbc8"><path id="path584" class="grey" d="m11.195,449.06c0.342-0.75,0.534-1.57,0.534-2.44s-0.194-1.7-0.536-2.44c-1.255,0.11-2.25,1.15-2.25,2.43,0,1.33,0.984,2.33,2.284,2.45z"/><path id="path586" class="grey" d="m3.947,446.62c0-2.34,1.082-4.43,2.771-5.794-0.277-0.04-0.562-0.07-0.853-0.07-3.24,0-5.865,2.634-5.865,5.874,0,3.23,2.625,5.9,5.9,5.86,0.293,0,0.577,0,0.854-0.1-1.725-1.37-2.827-3.47-2.827-5.8z"/><path id="path588" class="grey" d="m11.483,440.02h-0.01l-0.06-0.01c-3.646,0-6.608,2.967-6.608,6.607,0,3.6,3,6.6,6.6,6.6h0.524,0.1c0.91,0,1.647-0.74,1.647-1.65s-0.735-1.64-1.647-1.64h-0.06-0.53c-1.826,0-3.315-1.49-3.315-3.32s1.489-3.31,3.315-3.31h0.1,0.521c0.912,0,1.647-0.74,1.647-1.65s-0.735-1.645-1.647-1.645c-0.08,0.04-0.53,0.04-0.53,0.02z"/></g><g id="dp-grey" fill="#cccbc8"><path id="path636" class="grey" d="m9.342,467.19c0,0.84-0.685,1.52-1.524,1.52s-1.522-0.68-1.522-1.52,0.682-1.52,1.522-1.52c0.839,0,1.506,0.67,1.506,1.47"/><path id="path638" class="grey" d="m10.411,461.98h-0.08v3.17h0.08c1.134,0,2.1,0.9,2.1,2.05,0,1.13-0.918,2.04-2.052,2h-4.372v3.82h0.01c0.03,1,0.8,1.7,1.8,1.73,0.981,0,1.776-0.8,1.776-1.78v-0.1-0.49h0.819c2.884,0,5.22-2.34,5.22-5.22-0.07-2.82-2.38-5.22-5.28-5.22"/><path id="path640" class="grey" d="m5.219,472.39h0.08v-3.17h-0.08c-1.133,0-2.049-0.91-2.049-2.05,0-1.13,0.916-2.04,2.049-2.04h4.371v-3.4c-0.03-0.96-0.808-1.73-1.771-1.73-0.979,0-1.778,0.8-1.778,1.78v0.2h-0.819c-2.881,0-5.222,2.34-5.222,5.22,0,2.86,2.33,5.26,5.23,5.26"/></g><g id="tc-grey" fill="#cccbc8"><path id="path578" class="grey" d="m11.736,486.61c0,1.1,0.9,2,2,1.96,1.079,0,1.959-0.88,1.959-1.96s-0.88-1.96-1.959-1.96c-1.121,0-2.01,0.9-2.01,1.96z"/><path id="path580" class="grey" d="m13.783,480.03h-0.07c-3.636,0-6.597,2.95-6.597,6.59,0,3.63,2.961,6.6,6.6,6.6h0.06,0.1c0.907,0,1.646-0.74,1.646-1.65,0-0.9-0.735-1.64-1.646-1.64h-0.06-0.07c-1.821,0-3.307-1.49-3.307-3.31s1.483-3.31,3.307-3.31h0.1,0.06c0.907,0,1.646-0.73,1.646-1.64s-0.736-1.65-1.646-1.65h-0.08z"/><path id="path582" class="grey" d="M6.197,480.02h-4.511c-0.455,0-0.885,0.16-1.205,0.48-0.309,0.31-0.481,0.73-0.481,1.2,0,0.4,0.2,0.9,0.5,1.17,0.322,0.3,0.8,0.5,1.2,0.48h0.6v9.88h3.3v-9.88h0.596c0.455,0,0.884-0.15,1.207-0.48,0.646-0.64,0.646-1.69,0-2.33-0.325-0.38-0.777-0.48-1.177-0.52z"/></g><g id="ws-grey" fill="#cccbc8"><path id="path600" class="grey" d="m8.652,512.07c0.153-0.19,0.327-0.4,0.541-0.64l0.104-0.12c0.129-0.15,0.239-0.27,0.346-0.38,0.209-0.23,0.386-0.42,0.715-0.87,0.324-0.44,0.533-0.77,0.498-1.34-0.02-0.29-0.03-0.49-0.217-0.72-0.115-0.15-0.33-0.35-0.553-0.57-0.246-0.23-0.457-0.45-0.742-0.75-0.287-0.3-0.66-1.06-0.66-1.06-0.11-0.26-0.317-0.78-0.375-1.27l-0.844-4.33h-2.408l-1.174,5.46-1.043-5.46h-2.84l2.563,12.41h2.392l1.196-5.38,1.061,5.38h1.107l0.333-0.36z"/><path id="path602" class="grey" d="m13.66,500.76c0.254-0.29,0.459-0.52,0.627-0.74h-3.813c-0.228,0.3-0.688,0.85-0.948,1.3-0.349,0.66-0.636,1.15-0.662,2.36l0.01,0.39c0,0.6,0.4,1.4,0.4,1.42l0.4,0.66c0.05,0.1,0.1,0.1,0.1,0.1,0.409,0.5,1,1,1.3,1.34,0.321,0.4,0.3,0.8,0.3,1.1,0.05,0.78-0.266,1.25-0.606,1.72-0.514,0.69-0.694,0.82-1.09,1.28l-0.631,0.74h3.942c0.229-0.3,0.562-0.85,0.828-1.34,0.344-0.66,0.631-1.15,0.657-2.36l-0.01-0.39c0-0.58-0.416-1.42-0.416-1.42-0.06-0.15-0.285-0.47-0.425-0.66l-0.08-0.1c-0.401-0.47-1.026-1-1.301-1.34-0.321-0.4-0.33-0.77-0.346-1.06-0.05-0.78,0.27-1.25,0.608-1.71,0.576-0.69,0.721-0.79,1.121-1.29z"/></g><g id="ps-grey" fill="#cccbc8"><path id="path604" class="grey" d="m8.104,532.42h1.129l0.334-0.36c0.149-0.19,0.33-0.4,0.541-0.64l0.104-0.12c0.129-0.15,0.235-0.27,0.345-0.38,0.206-0.23,0.387-0.42,0.713-0.87,0.323-0.44,0.532-0.77,0.5-1.34-0.02-0.29-0.03-0.49-0.22-0.72-0.114-0.15-0.321-0.35-0.551-0.57-0.242-0.23-0.457-0.46-0.742-0.75-0.289-0.3-0.659-1.07-0.659-1.07-0.128-0.29-0.39-0.96-0.39-1.5l-0.01-0.37h-4.219v3.03c0.217-0.27,0.526-0.37,0.813-0.37,0.469,0,0.9,0.3,0.9,0.88v3.11h-1.094v-2.73c0-0.25-0.101-0.36-0.287-0.36-0.211,0-0.305,0.13-0.305,0.36v2.73h-1.095v-6.65h-3.911v8.73h0.793v-5.96h0.987v0.46c0.229-0.39,0.573-0.57,0.894-0.57,0.563,0,1,0.4,1,1.22v1.77c0,0.67-0.445,1.11-0.957,1.11-0.293,0-0.543-0.14-0.785-0.46v2.43h5.146v-5.96h0.984v0.46c0.228-0.39,0.574-0.56,0.894-0.56,0.563,0,1,0.4,1,1.21v1.77c0,0.67-0.444,1.11-0.957,1.1-0.293,0-0.541-0.13-0.784-0.45v2.42h-0.114z"/><path id="path606" class="grey" d="m8.747,529.12v-1.39c0-0.32-0.104-0.48-0.32-0.48s-0.323,0.16-0.323,0.48v1.39c0,0.3,0.1,0.5,0.3,0.46,0.239,0,0.393-0.13,0.393-0.46z"/><path id="path608" class="grey" d="m2.509,529.12v-1.39c0-0.32-0.108-0.48-0.321-0.48-0.218,0-0.326,0.16-0.326,0.48v1.39c0,0.3,0.1,0.5,0.3,0.46,0.239,0,0.335-0.13,0.335-0.46z"/><path id="path610" class="grey" d="m14.575,520.75c0.252-0.29,0.459-0.52,0.632-0.73h-3.818c-0.225,0.28-0.688,0.84-0.948,1.3-0.349,0.65-0.636,1.14-0.662,2.35l0.01,0.39c0,0.6,0.4,1.4,0.4,1.42,0.06,0.2,0.3,0.5,0.4,0.66,0.05,0.1,0.1,0.1,0.1,0.1,0.41,0.5,1,1,1.3,1.34,0.319,0.4,0.3,0.8,0.3,1.1,0.04,0.78-0.269,1.25-0.609,1.72-0.508,0.69-0.694,0.82-1.086,1.28-0.254,0.28-0.457,0.52-0.629,0.74h3.94c0.231-0.3,0.56-0.85,0.826-1.35,0.349-0.65,0.633-1.15,0.659-2.35l-0.02-0.39c0-0.58-0.408-1.43-0.408-1.43-0.06-0.15-0.283-0.46-0.424-0.65l-0.07-0.11c-0.408-0.47-1.03-0.99-1.303-1.33-0.326-0.4-0.334-0.77-0.351-1.06-0.05-0.78,0.269-1.26,0.606-1.72,0.576-0.68,0.777-0.78,1.177-1.28z"/></g><g id="yt-grey"><path id="path590" class="grey" fill="#cccbc8" d="m10.464,546.08c-0.658-1.78-2.636-2.69-4.414-2.04h-0.06c0.01,0,0,0,0,0.1,0.304,0.82-0.116,1.72-0.936,2.03-0.369,0.13-0.759,0.11-1.099,0-0.254,0.73-0.265,1.5,0,2.31,0.658,1.8,2.6,2.7,4.4,2.04,1.853-0.61,2.806-2.61,2.106-4.39z"/><path id="path592" class="white" fill="#FFF" d="m6.66,545.7c-0.864,0.32-1.31,1.28-0.989,2.15,0.319,0.9,1.3,1.3,2.1,1,0.866-0.32,1.31-1.28,0.993-2.15-0.276-0.84-1.199-1.34-2.099-1z"/><path id="path594" class="grey" fill="#cccbc8" d="m14.556,542.67c0-0.15-0.06-0.29-0.164-0.4-0.104-0.1-0.241-0.16-0.394-0.15-0.153,0-0.288,0.1-0.396,0.16l-1.18,1.19c-0.07-0.1-0.15-0.2-0.229-0.3l1.146-1.15c0.104-0.11,0.159-0.25,0.159-0.4,0-0.14-0.06-0.29-0.159-0.39-0.106-0.1-0.246-0.16-0.396-0.16s-0.289,0.1-0.396,0.16l-1.138,1.15c-0.09-0.1-0.19-0.16-0.293-0.23l1.168-1.18c0.104-0.1,0.16-0.24,0.16-0.39s-0.06-0.29-0.164-0.4c-0.104-0.1-0.248-0.16-0.392-0.16-0.153,0-0.291,0.1-0.397,0.17l-1.34,1.35c-1.543-0.78-3.396-0.95-5.146-0.31-0.162,0.1-0.324,0.14-0.484,0.2l-3.42-0.67,1.787,1.76c-0.133,0.12-0.254,0.25-0.377,0.38l-1.783-1.76,0.709,3.34c-0.726,1.52-0.862,3.31-0.235,5,0.1,0.3,0.2,0.5,0.3,0.76l-1.34,1.34c-0.104,0.11-0.162,0.25-0.162,0.4,0,0.1,0.1,0.3,0.2,0.4,0.106,0.1,0.2,0.2,0.4,0.16,0.149,0,0.289-0.1,0.394-0.16l1.161-1.17c0.08,0.1,0.2,0.2,0.2,0.28l-1.14,1.1c-0.103,0.11-0.159,0.25-0.157,0.4,0,0.1,0.1,0.3,0.2,0.39,0.109,0.1,0.2,0.2,0.4,0.2,0.15,0,0.285-0.1,0.394-0.16l1.147-1.16c0.1,0.1,0.2,0.2,0.3,0.23l-1.183,1.2c-0.104,0.1-0.162,0.24-0.162,0.39,0,0.1,0.1,0.3,0.2,0.4,0.106,0.1,0.2,0.2,0.4,0.2,0.147,0,0.287-0.1,0.394-0.17l1.381-1.39c1.511,0.7,3.3,0.9,5,0.23,0.466-0.17,0.894-0.4,1.291-0.66,0.287,0.2,0.5,0.4,0.5,0.41,0.08,0.1,0.1,0.3-0.03,0.48l-0.147,0.18c-0.09,0.12-0.133,0.26-0.112,0.4,0.02,0.1,0.1,0.3,0.2,0.37,0.116,0.1,0.3,0.1,0.4,0.12,0.146,0,0.283-0.1,0.369-0.21l0.195-0.25c0.477-0.6,0.229-1.46-0.291-1.87l-0.33-0.26c0.45-0.4,0.834-0.87,1.149-1.38,0.172,0.1,0.3,0.2,0.3,0.23,0.08,0.1,0.1,0.3-0.03,0.47l-0.146,0.19c-0.09,0.12-0.139,0.26-0.116,0.4,0.02,0.1,0.1,0.3,0.2,0.37,0.118,0.1,0.3,0.1,0.4,0.12,0.15,0,0.279-0.1,0.371-0.21l0.19-0.24c0.479-0.61,0.233-1.47-0.284-1.87l-0.432-0.35c0.615-1.45,0.705-3.13,0.115-4.73-0.08-0.2-0.16-0.4-0.252-0.59l1.371-1.38c0.09-0.13,0.155-0.23,0.155-0.42zm-11.574,6.19c-0.864-2.35,0.337-4.96,2.688-5.83,2.351-0.86,5,0.3,5.8,2.69,0.869,2.35-0.332,4.96-2.683,5.8-2.323,0.84-4.922-0.36-5.822-2.68z"/></g><g id="objc-grey" fill="#cccbc8"><path id="path630" class="grey" d="M8.537,560.02h-0.625v12.86h0.625c3.554,0,6.433-2.88,6.433-6.44,0-3.59-2.84-6.39-6.44-6.42zm0.476,7.89s-0.109-1.83,0.07-2.15c0.269-0.48,1.419-0.24,1.4,0.48,0.02,1.01-1.456,1.71-1.456,1.67z"/><path id="path632" class="grey" d="m6.718,565.76c-0.269-0.48-1.416-0.24-1.416,0.48,0,1,1.5,1.7,1.5,1.67-0.01,0,0.128-1.86-0.07-2.15z"/><path id="path634" class="grey" d="m6.056,569.75c-1.654-0.19-2.945-1.6-2.945-3.31s1.308-3.13,2.98-3.3h0.07c0.741-0.12,1.308-0.76,1.308-1.53,0-0.85-0.693-1.55-1.552-1.55h-0.1-0.06c-3.234,0.34-5.757,3.07-5.757,6.4,0,3.3,2.5,6.1,5.8,6.4h0.1c0.854,0,1.554-0.7,1.554-1.56,0.02-0.84-0.627-1.44-1.427-1.54z"/></g><g id="kotlin-grey" fill="#cccbc8"><path id="path622" class="grey" d="m0.064013,591.02c0,1.2,1,2.1,2.1,2.09,1.158,0,2.099-0.95,2.09-2.11l-0.01-2.31-4.176,2.29z"/><path id="path624" class="grey" d="m12.783,590.95c-0.04-0.45-0.237-0.86-0.552-1.19l-3.805-3.31-3.65,2,4.775,4.2c0.358,0.3,0.8,0.5,1.3,0.47h0.171c0.521-0.1,0.989-0.29,1.327-0.7,0.326-0.44,0.481-0.94,0.481-1.45z"/><path id="path626" class="grey" d="m4.218,582.45,0-0.22v-0.1c0-1.17-0.957-2.11-2.119-2.1-1.162,0-2.103,0.96-2.099,2.12l0.02,2.58,4.201-2.33z"/><path id="path628" class="grey" d="m0.029013,585.69,9.808-5.43c0.286-0.15,0.602-0.23,0.918-0.24,0.205,0,0.4,0,0.6,0.1,1.035,0.3,1.6,1.41,1.3,2.47-0.135,0.44-0.414,0.8-0.785,1.05h-0.01l-0.117,0.1-11.668,6.4-0.05-4.43z"/></g><g id="mps-grey" fill="#cccbc8"><path id="path616" class="grey" d="m16.703,604.01c-0.09,0.78-0.389,1.43-0.851,1.93-0.06,0.1-0.118,0.13-0.215,0.2,0.08,0,0.3,0.1,0.4,0.13,0.278,0.1,0.6,0.4,0.6,0.83,0,0.54-0.53,0.96-1.362,1-0.742,0-1.063-0.21-1.275-0.49-0.112-0.15-0.116-0.21-0.28-0.33-0.188-0.13-0.572-0.11-0.572-0.11h-1.43l-0.486,0.17c-0.104,0.18-0.129,0.29-0.04,0.5,0.496,1.3,1.7,2.1,3.8,2.1,3.297,0,4.149-1.49,4.149-3.08-0.04-1.43-0.836-2.43-2.436-2.85z"/><path id="path618" class="grey" d="m11.867,604.38c1.651,0,1.769-0.34,1.769-0.9,0-0.12-0.01-0.23-0.03-0.32-0.01,0-0.02-0.1-0.02-0.13h-0.01v-0.17c0-0.46,0.235-1.11,1.51-1.11,1.076,0,1.4,0.3,1.6,0.81,0.05,0.1,0.1,0.3,0.2,0.42,0.162,0.2,0.5,0.2,0.5,0.19h0.896l0.59-0.17c0.141-0.14,0.2-0.27,0.163-0.48-0.248-1.58-1.481-2.5-4.006-2.5-2.64,0-3.957,1.35-3.957,3.07,0,0.5,0.1,0.9,0.4,1.31h0.395z"/><path id="path620" class="grey" d="m16.365,603.43c0-0.14,0-0.28-0.02-0.42-0.02-0.16-0.04-0.32-0.08-0.47-0.125-0.32-0.397-0.44-1.183-0.44-1.139,0-1.139,0.55-1.139,0.73v0.18c0.03,0.1,0.1,0.3,0.1,0.46,0,1.04-0.687,1.28-2.146,1.28h-1.167v-1.78h0.01c0.03-1.2,0.635-2.15,1.653-2.73h-4.813l-2.31,7.02-2.229-7.02h-3.041v9.39h2.263v-6.37l2,6.37h1.951l2.114-6.27v6.27h2.397v-2.94h2.206,0.362,0.104,0.248,0.104l0.313-0.1h0.03l0.262-0.1h0.1c0.06,0,0.13,0,0.188-0.1h0.09c0.09-0.1,0.166-0.1,0.245-0.14,0.888-0.55,1.418-1.45,1.418-2.74z"/></g><g id="omea-grey" fill="#cccbc8"><path id="path4236" d="m6.3972,620.41-0.14112,0c-0.12893,0.74729-0.26684,1.5491-0.30501,1.764,0.26235,0.25658,1.6036,1.5716,2.1168,2.0751,0.82266,0.54524,1.3791,1.4753,1.3791,2.5402,0,1.687-1.365,3.0501-3.0488,3.0469-1.442,0-2.6492-1.0039-2.9654-2.3477l-0.32938-0.67031s-0.7335-1.485-0.93652-1.8955l-1.8022-0.263c-0.23481,0.66-0.3647,1.38-0.3647,2.13,0,3.528,2.8545,6.3824,6.3825,6.3985,3.5344,0,6.3981-2.8641,6.3981-6.3985,0.01604-3.5055-2.8628-6.3921-6.3907-6.3856z" class="grey"/><path id="path4238" d="m3.5995,626.59,1.0905-2.1809,2.3733-0.3528-1.7319-1.6678,0.41694-2.3734-2.1489,1.1225-2.1168-1.1225,0.38487,2.3734-1.732,1.6678,2.4055,0.3528z" class="grey"/></g><g id="omear-grey" fill="#cccbc8"><path id="path5010" d="m6.8058,640.09c-0.63015,0-1.2386,0.0894-1.8141,0.25551l0.88566,3.3057c0.29256-0.0926,0.60556-0.14053,0.92846-0.14053,1.7183,0,3.0981,1.4053,3.0981,3.1108,0,1.7215-1.3929,3.114-3.1115,3.114s-3.1121-1.3925-3.1121-3.114c0-0.24274,0.02875-0.47909,0.08272-0.70585l-3.3066-0.88471c-0.12744,0.50783-0.1961,1.0412-0.1961,1.5906,0,3.6091,2.9384,6.5475,6.5475,6.5475s6.5321-2.9256,6.5321-6.5315c0-3.6283-2.9282-6.5347-6.5369-6.5475z" class="grey"/><path id="path5012" d="M4.1201,640,5.6212,645.63,0,644.09z" class="grey"/></g><path id="eap-grey" d="m11.25,666.49a4.7665,4.7665,0,0,1,-9.533,0,4.7665,4.7665,0,1,1,9.533,0z"/><g id="scala" transform="matrix(0.22048772,0,0,0.22048772,-8.16003,535.28109)"><g id="g3" fill="url(#linearGradientBlack)" transform="translate(20,656.35716)"><path id="path12" d="M73.701,56.017v21.499c-8.371-14.815-56.692-9.321-56.692-14.86v-20.194c3.777,17.528,52.369,8.252,56.692,13.555z"/><path id="path21" d="M73.701,27.356v21.499c-8.371-14.815-56.692-9.321-56.692-14.86v-20.194c3.777,17.528,52.369,8.252,56.692,13.555z"/></g><g id="g23" fill="url(#linearGradientRed)" transform="translate(20,656.35716)"><path id="path30" d="M17.009,13.194v20.423c5.687-4.564,49.278-2.898,56.692-13.193v-20.423c-7.414,10.295-51.006,8.63-56.692,13.193z"/><path id="path37" d="M17.009,42.462v20.239c5.687-4.563,49.278-2.897,56.692-13.193v-20.24c-7.414,10.296-51.006,8.63-56.692,13.194z"/><path id="path44" d="M17.009,70.951v19.758c5.687-4.563,49.278-2.896,56.692-13.191v-19.76c-7.414,10.294-51.006,8.627-56.692,13.193z"/></g></g><g id="scala-grey" transform="matrix(0.22048772,0,0,0.22048772,-8.16003,555.28109)"><g id="g4114" fill="#95948d" transform="translate(20,656.35716)"><path id="path4124" d="M73.701,56.017v21.499c-8.371-14.815-56.692-9.321-56.692-14.86v-20.194c3.777,17.528,52.369,8.252,56.692,13.555z"/><path id="path4134" d="M73.701,27.356v21.499c-8.371-14.815-56.692-9.321-56.692-14.86v-20.194c3.777,17.528,52.369,8.252,56.692,13.555z"/></g><g id="g4136" fill="#cccbc8" transform="translate(20,656.35716)"><path id="path4144" d="M17.009,13.194v20.423c5.687-4.564,49.278-2.898,56.692-13.193v-20.423c-7.414,10.295-51.006,8.63-56.692,13.193z"/><path id="path4152" d="M17.009,42.462v20.239c5.687-4.563,49.278-2.897,56.692-13.193v-20.24c-7.414,10.296-51.006,8.63-56.692,13.194z"/><path id="path4160" d="M17.009,70.951v19.758c5.687-4.563,49.278-2.896,56.692-13.191v-19.76c-7.414,10.294-51.006,8.627-56.692,13.193z"/></g></g><linearGradient id="linearGradientBlack" y2="59.989" gradientUnits="userSpaceOnUse" y1="59.989" x2="73.701" x1="17.009"><stop id="stop3098" stop-color="#1A0007" offset="0"/><stop id="stop3100" stop-color="#422D33" offset="0.0376"/><stop id="stop3102" stop-color="#271E17" offset="1"/></linearGradient><linearGradient id="linearGradientRed" y2="768.79" gradientUnits="userSpaceOnUse" y1="768.79" gradientTransform="translate(0.0801,-751.9805)" x2="16.929" x1="73.621"><stop id="stop3117" stop-color="#A52F35" offset="0"/><stop id="stop3119" stop-color="#E75F4B" offset="1"/></linearGradient><metadata id="metadata4222"><rdf:RDF><cc:Work rdf:about=""><dc:title/></cc:Work></rdf:RDF></metadata></svg>

